<?xml version="1.0" encoding="UTF-8" standalone="no"?>
<svg
   xmlns:dc="http://purl.org/dc/elements/1.1/"
   xmlns:cc="http://creativecommons.org/ns#"
   xmlns:rdf="http://www.w3.org/1999/02/22-rdf-syntax-ns#"
   xmlns:svg="http://www.w3.org/2000/svg"
   xmlns="http://www.w3.org/2000/svg"
   xmlns:sodipodi="http://sodipodi.sourceforge.net/DTD/sodipodi-0.dtd"
   xmlns:inkscape="http://www.inkscape.org/namespaces/inkscape"
   inkscape:export-ydpi="96"
   inkscape:export-xdpi="96"
   inkscape:export-filename="C:\Projects\rrmmm\game\images\ruby in.png"
   inkscape:version="1.0 (4035a4fb49, 2020-05-01)"
   sodipodi:docname="ruby ray5.svg"
   id="svg931"
   version="1.1"
   viewBox="0 0 79.374998 211.66667"
   height="800"
   width="300">
  <defs
     id="defs925">
    <inkscape:perspective
       sodipodi:type="inkscape:persp3d"
       inkscape:vp_x="0 : 63.166662 : 1"
       inkscape:vp_y="0 : 999.99999 : 0"
       inkscape:vp_z="210 : 63.166662 : 1"
       inkscape:persp3d-origin="105 : 13.666664 : 1"
       id="perspective1755" />
  </defs>
  <sodipodi:namedview
     units="px"
     inkscape:snap-global="false"
     showguides="false"
     inkscape:window-maximized="1"
     inkscape:window-y="-8"
     inkscape:window-x="-8"
     inkscape:window-height="1017"
     inkscape:window-width="1920"
     showgrid="false"
     inkscape:document-rotation="0"
     inkscape:current-layer="layer1"
     inkscape:document-units="mm"
     inkscape:cy="558.54401"
     inkscape:cx="-4.9272272"
     inkscape:zoom="0.49497475"
     inkscape:pageshadow="2"
     inkscape:pageopacity="0.0"
     borderopacity="1.0"
     bordercolor="#666666"
     pagecolor="#ffffff"
     id="base" />
  <metadata
     id="metadata928">
    <rdf:RDF>
      <cc:Work
         rdf:about="">
        <dc:format>image/svg+xml</dc:format>
        <dc:type
           rdf:resource="http://purl.org/dc/dcmitype/StillImage" />
        <dc:title></dc:title>
      </cc:Work>
    </rdf:RDF>
  </metadata>
  <g
     id="layer1"
     inkscape:groupmode="layer"
     inkscape:label="Layer 1">
    <g
       transform="matrix(0.99436812,0,0,0.9943681,-7.1358382,-32.250759)"
       id="g1834">
      <path
         id="path1823"
         style="display:inline;fill:#ffffff;stroke-width:0.479951"
         d="m 195.59766,122.58398 c -13.44296,0.0581 -20.48401,4.30327 -26.42383,15.55079 -1.62883,3.08429 -3.7429,7.55949 -4.69727,9.94531 -2.63112,6.57753 -6.37205,14.33096 -9.97265,20.66992 l -3.24024,5.70508 1.06445,3.30859 c 1.38562,4.31014 1.12311,7.72863 -1.08984,14.19336 -2.12901,6.21956 -3.82993,9.01326 -9.61133,15.80078 -2.57147,3.019 -4.80856,6.0193 -4.9707,6.66602 -0.57543,2.2932 3.77966,9.05587 8.85937,13.75976 6.03285,5.58649 12.8486,8.23058 21.32422,8.27344 l 5.17774,0.0273 -0.29688,1.19921 c -0.16308,0.66 -1.62819,3.44339 -3.25781,6.18555 -3.11716,5.24526 -8.50955,11.32428 -12.1543,13.70117 l -1.99218,1.29883 -2.56836,-0.77734 c -3.64097,-1.10299 -10.27889,-1.4652 -13.92969,-0.75977 -6.41208,1.23898 -13.61641,5.94149 -17.9668,11.72852 -4.02992,5.36073 -9.38282,17.26216 -11.47656,25.51757 -0.62249,2.45441 -1.58963,8.40382 -2.14844,13.22071 -1.28545,11.0801 -2.23558,14.08944 -6.634763,20.99414 -7.119307,11.17413 -10.275988,18.81949 -14.501953,35.13086 -4.009625,15.47628 -5.485192,19.48722 -12.404297,33.71679 -5.180107,10.65336 -6.340284,13.50185 -9.601563,23.5879 -4.645152,14.36598 -6.986571,30.45772 -8.208984,56.4121 -0.26846,5.70029 -0.728193,13.71076 -1.021484,17.80274 -0.293178,4.09202 -0.512912,7.98064 -0.490235,8.64062 0.02362,0.66002 -0.25681,2.49608 -0.623047,4.08008 -0.959924,4.15317 -0.337023,43.52021 0.71875,45.4336 0.851868,1.54386 8.155103,7.98768 11.351563,10.01562 3.013606,1.91195 8.651196,3.66743 14.111328,4.39453 3.716107,0.49486 4.485527,0.75165 5.115234,1.71289 1.838892,2.80702 4.284502,3.00915 11.15625,0.91797 l 3.59961,-1.0957 0.865234,-2.58399 c 1.453037,-4.33262 1.533687,-7.83758 0.333985,-14.77343 l -1.087891,-6.28125 2.277343,-3.0293 c 2.25797,-3.00423 2.27628,-3.05401 2,-5.91016 -0.15318,-1.58426 -0.42594,-6.39253 -0.60547,-10.68554 -0.18519,-4.427 -0.55537,-8.10282 -0.85547,-8.49219 -0.29083,-0.37758 -2.580398,-1.58252 -5.087888,-2.67578 -4.166096,-1.81641 -11.496445,-5.80355 -13.558593,-7.375 -2.198778,-1.67558 -2.650408,-12.68984 -0.873047,-21.30274 1.608151,-7.79285 3.032681,-11.76127 10.46875,-29.15039 3.838412,-8.976 7.470128,-17.76246 8.070308,-19.52539 1.94892,-5.72451 2.62744,-11.3701 2.50196,-20.80078 -0.0847,-6.36143 0.0595,-9.13806 0.54883,-10.55273 1.39434,-4.03079 12.05958,-22.53856 18.44921,-32.01563 2.18937,-3.24724 5.58389,-8.28673 7.54297,-11.19726 1.95908,-2.91054 4.60893,-7.16803 5.88868,-9.46094 l 2.32617,-4.16797 2.28515,4.66016 c 2.07606,4.2373 4.8415,8.5781 11.53516,18.10156 4.78276,6.80468 7.26264,16.19599 6.28711,23.8125 -0.81075,6.33018 -1.99682,9.27818 -8.55859,21.30664 -2.06053,3.77718 -2.53218,4.3393 -3.75977,4.46289 -1.47417,0.14857 -1.32741,-0.0876 -9.19336,14.70313 -1.64069,3.08506 -1.91337,4.53761 -1.02344,5.42773 0.40581,0.40592 -0.0152,1.8044 -1.65039,5.49609 -1.20627,2.72338 -2.76544,6.24608 -3.46484,7.83008 -2.55201,5.77973 -9.33318,26.10213 -12.25196,36.71484 -2.40531,8.74587 -4.66027,19.23098 -7.17578,33.36524 -4.33058,24.33328 -5.05026,32.03898 -4.65625,49.91992 0.37323,16.93863 0.97144,22.71983 6.29883,60.96094 2.91058,20.89285 4.20078,33.26543 4.45703,42.71875 0.39315,14.50605 -1.00562,20.57056 -8.27539,35.86914 -4.90276,10.31739 -9.294887,20.97119 -10.591794,25.69141 -0.498785,1.81545 -1.083354,3 -1.480469,3 -0.360945,0 -0.778821,0.37783 -0.927735,0.83984 -0.148874,0.46201 -0.694415,1.88259 -1.21289,3.15625 -3.101783,7.61938 -4.018595,20.05375 -3.595703,48.80469 0.554343,37.68797 1.428667,46.97935 8.896484,94.56054 3.324847,21.18418 7.585707,50.41697 8.708987,59.75977 1.7622,14.65723 1.24233,18.03782 -4.57617,29.75977 -4.613338,9.29392 -5.975628,14.31001 -6.343754,23.36337 -0.257122,6.3204 -0.219624,6.6824 1.02539,9.7929 1.611854,4.0272 3.462134,6.7446 6.281254,9.2266 3.68039,3.2403 5.68795,3.9106 13.84179,4.623 h 0.002 c 9.49999,0.8298 8.76574,0.8209 12.07421,0.127 6.37278,-1.3366 13.07679,-6.7813 16.06836,-13.0508 3.76831,-7.8973 4.22795,-21.7643 1.16211,-35.05864 -2.20985,-9.58265 -4.07101,-19.51532 -4.53125,-24.18164 -0.2612,-2.64846 -1.13979,-6.8446 -2.07031,-9.88281 -0.8894,-2.904 -2.3814,-7.7648 -3.31445,-10.80078 -1.4414,-4.69006 -1.8148,-6.92629 -2.49024,-14.87891 -0.43725,-5.14802 -1.15622,-12.60054 -1.5957,-16.56055 -1.10048,-9.91452 -1.07629,-30.74885 0.0449,-39.35937 1.16621,-8.95642 1.75734,-11.96222 7.08594,-35.99219 2.63327,-11.87505 6.30965,-30.12757 8.16797,-40.56054 3.03795,-17.05542 3.34994,-19.38051 3.0918,-23.0586 -0.22636,-3.22446 0.17063,-7.88363 1.88085,-22.0039 1.19335,-9.85263 2.58982,-19.56837 3.10157,-21.58985 2.00916,-7.93587 2.86818,-14.84239 3.15429,-25.36523 0.23059,-8.47748 0.75773,-11.66783 3.57813,-21.63867 1.9121,-6.75973 8.86586,-26.72934 14.7168,-42.26172 l 3.29297,-8.74024 0.35742,5.16602 c 1.01385,14.64563 5.91055,38.21836 12.1914,58.68359 1.74199,5.67602 3.37448,11.93994 3.62696,13.91992 0.61935,4.85775 -0.15409,14.16933 -2.57227,30.96094 -2.96217,20.56725 -3.26405,22.88121 -3.27539,25.08203 -0.008,1.58718 -0.28612,2.28378 -1.24219,3.11524 -3.48809,3.03348 -4.30081,6.50113 -3.31836,14.14843 2.13328,16.6054 5.23956,26.74689 14.18555,46.31641 4.92729,10.77857 5.29284,11.79935 6.89062,19.23047 1.48562,6.90932 1.80377,9.68119 2.65821,23.17773 1.06624,16.84173 2.25199,32.10967 2.8125,36.20899 0.27405,2.00417 -0.14004,6.39727 -1.71875,18.24023 -1.83821,13.78942 -3.09194,28.56232 -3.0957,36.48047 -0.002,3.23671 2.35886,8.6177 7.52343,17.14844 0.0361,0.0596 2.50891,0.63702 5.4961,1.2832 5.11683,1.10687 5.52562,1.12979 7.05078,0.40235 l 1.61914,-0.77149 v -3.51172 -3.51172 h 2.13476 c 4.00691,0 13.61358,3.59769 20.04297,7.50391 1.61379,0.98056 4.46579,3.0651 6.33594,4.63281 3.82023,3.20232 8.34834,5.64777 12.27734,6.63086 1.6472,0.41212 5.34778,0.66224 9.84375,0.66602 l 7.20508,0.008 3.27344,-1.67773 c 1.9875,-1.01927 4.19999,-2.67503 5.63281,-4.21485 2.58724,-2.78045 2.70294,-3.06389 1.62696,-3.95703 -0.64479,-0.53518 -0.64686,-0.69983 -0.0254,-1.38672 0.38805,-0.42886 1.14219,-1.74838 1.67579,-2.93164 1.92744,-4.27396 0.50667,-8.5489 -5.03321,-15.14062 -1.70324,-2.02659 -3.22879,-3.04421 -9.20312,-6.13477 -11.26806,-5.82913 -19.92368,-11.93174 -26.05664,-18.375 -3.93975,-4.13904 -5.03109,-5.70218 -6.48828,-9.28906 -4.59428,-11.30884 -6.91081,-26.03209 -9.06446,-57.61133 -1.84203,-27.01013 -2.6643,-63.19609 -1.80468,-79.44141 l 0.45703,-8.63867 -1.83203,-3.16406 -1.83204,-3.16406 0.47071,-10.51563 c 0.29038,-6.4854 0.83448,-12.44858 1.41797,-15.55664 1.27411,-6.78686 2.38281,-16.68089 2.38281,-21.26172 0,-2.34032 1.07279,-10.18013 2.85937,-20.88281 6.14472,-36.81128 7.84707,-49.96353 10.57422,-81.69531 2.78224,-32.37274 3.37637,-42.94591 3.28125,-65.9043 1.63186,1.72467 2.20367,1.96755 4.10352,2.03516 1.43297,0.051 3.2165,-0.28876 4.50195,-0.85743 1.47118,-0.65101 2.90615,-0.87 4.6543,-0.70703 1.64976,0.15383 3.40352,-0.0881 5.04883,-0.69921 1.38674,-0.51531 2.97533,-0.80084 3.52929,-0.63477 1.88803,0.56647 2.48317,0.45456 8.23633,-1.55664 8.39577,-2.93499 10.60008,-3.96089 11.49609,-5.3457 0.82557,-1.27597 0.53984,-4.41872 -0.64648,-7.09961 -1.05441,-2.38266 -1.38293,-4.46903 -0.74805,-4.75 0.71052,-0.31446 0.20221,-2.36225 -4.0625,-16.34571 l -0.71679,-2.34375 -2.95899,-0.91601 c -1.6549,-0.51217 -5.8932,-1.01032 -9.61328,-1.12696 -8.5903,-0.2691 -9.51349,-0.33602 -11.8418,-0.85937 -1.93164,-0.43438 -1.94919,-0.45299 -2.83984,-3.25781 -2.34221,-7.3759 -3.00033,-12.88397 -2.875,-24.0586 0.093,-8.28204 -0.45273,-12.96465 -2.60547,-22.35156 -0.91472,-3.98861 -5.18359,-25.12695 -5.18359,-25.12695 l -0.041,0.002 c -0.50619,-2.45635 -5.20339,-26.60051 1.16016,-48.98242 1.91917,-8.95397 2.01756,-9.81903 2.26172,-19.95508 l 0.2539,-10.52539 0.0488,-0.0645 2.07227,-1.3125 c 2.727,-1.72558 7.02141,-6.40197 8.29492,-9.03321 1.62572,-3.35929 1.99413,-6.42488 1.5,-12.48828 -0.48941,-6.00593 -1.27736,-8.35706 -4.31055,-12.85547 -2.45253,-3.63725 -3.35371,-5.46688 -4.57226,-9.28515 -0.97898,-3.06746 -1.00273,-3.48092 -0.37696,-6.24024 0.36858,-1.62525 0.79747,-6.44071 0.95508,-10.70312 0.57177,-15.46894 -2.27013,-23.48663 -9.57422,-27 -2.78226,-1.33831 -3.55558,-1.46945 -11.2832,-1.91016 l -8.29688,-0.47265 -10.41992,-3.45508 c -5.7312,-1.89971 -10.57715,-3.59482 -10.76953,-3.76758 -0.33256,-0.29847 1.30876,-14.85035 2.55664,-22.66211 l 0.58399,-3.65625 5.80273,-0.33594 c 5.53123,-0.31946 6.00597,-0.43075 10.12305,-2.40039 8.38594,-4.01186 16.05462,-10.3979 18.5332,-15.43359 1.35069,-2.74383 1.48736,-3.39975 1.26172,-6.07617 -0.2157,-2.56006 -0.97192,-4.48115 -5.15234,-13.08204 -2.69466,-5.54399 -5.42756,-11.45738 -6.07227,-13.14257 -1.90779,-4.98638 -5.05764,-25.31868 -6.19531,-39.98438 -0.35864,-4.62293 -0.65765,-5.10943 -4.44727,-7.2539 l -2.07226,-1.17188 1.35156,-1.02539 1.35351,-1.02734 -1.42578,0.51172 c -1.18579,0.42522 -1.53013,0.3707 -2.04101,-0.32813 -0.50793,-0.69456 -0.61328,-0.71314 -0.61328,-0.10352 0,0.40555 -0.39957,1.10024 -0.88868,1.54297 -0.85591,0.77481 -0.9005,0.67933 -1.17187,-2.55664 -0.34934,-4.16779 -1.40432,-6.40887 -1.19531,-2.53906 l 0.13672,2.52148 -1.57813,-1.80078 -1.57812,-1.80078 1.4707,3.00781 c 1.21515,2.48813 1.3749,3.18606 0.92578,4.02539 -0.43453,0.81209 -0.62809,0.88337 -0.96484,0.35157 -0.64207,-1.01396 -0.5184,-1.38786 0.34961,-1.05469 0.95652,0.36712 0.82139,0.0182 -1.02539,-2.6543 -2.09046,-3.02507 -4.48842,-5.58783 -4.8711,-5.20508 -0.18232,0.18239 0.0938,0.8172 0.61328,1.41016 2.29282,2.61721 2.08075,2.69085 -1.79883,0.63086 -6.40679,-3.40193 -11.36795,-4.64879 -19.61718,-4.92969 -0.95468,-0.0325 -1.8792,-0.0468 -2.77539,-0.043 z m 26.28906,3.32227 c -0.21745,0 -0.43463,0.033 -0.59961,0.0996 -0.32995,0.13315 -0.0603,0.24219 0.59961,0.24219 0.65994,0 0.93151,-0.10904 0.60156,-0.24219 -0.16496,-0.0666 -0.38411,-0.0996 -0.60156,-0.0996 z"
         transform="scale(0.26458333)" />
      <path
         id="path1671"
         style="display:inline;fill:#000000;stroke-width:0.126987"
         d="m 51.75188,32.433678 c -3.55678,0.01537 -5.419727,1.138573 -6.991307,4.114479 -0.43096,0.816052 -0.99031,2.000115 -1.24282,2.631364 -0.69615,1.740304 -1.68594,3.791733 -2.638597,5.468916 l -0.85731,1.509469 0.28163,0.875398 c 0.36662,1.140391 0.29716,2.044866 -0.28835,3.755326 -0.5633,1.645592 -1.01333,2.384759 -2.543,4.180623 -0.68036,0.798777 -1.272257,1.592607 -1.315157,1.763718 -0.15225,0.606742 1.000027,2.396032 2.344037,3.640603 1.59619,1.478092 3.399527,2.177674 5.642037,2.189014 l 1.36994,0.0072 -0.0786,0.31729 c -0.0431,0.174625 -0.43079,0.911064 -0.86196,1.636594 -0.82475,1.387808 -2.25149,2.996216 -3.215827,3.625101 l -0.5271,0.343649 -0.67954,-0.205671 c -0.96334,-0.291833 -2.71963,-0.387668 -3.685567,-0.201023 -1.69653,0.327814 -3.60267,1.572019 -4.75371,3.103171 -1.066257,1.41836 -2.482547,4.567277 -3.036507,6.751524 -0.1647,0.649396 -0.42059,2.22351 -0.56845,3.497979 -0.3401,2.93161 -0.59149,3.727831 -1.75544,5.5547 -1.883657,2.956488 -2.718857,4.979323 -3.836977,9.29504 -1.06088,4.094768 -1.45129,5.155998 -3.281967,8.920908 -1.37057,2.8187 -1.67754,3.57236 -2.54042,6.24096 -1.22903,3.801 -1.848527,8.0586 -2.171957,14.9257 -0.071,1.5082 -0.19267,3.62764 -0.27027,4.71031 -0.0776,1.08268 -0.13571,2.11155 -0.12971,2.28616 0.006,0.17464 -0.0679,0.66043 -0.16485,1.07953 -0.25397,1.09886 -0.0892,11.51472 0.19017,12.02097 0.22539,0.40848 2.157707,2.11341 3.003437,2.64997 0.79735,0.50587 2.28896,0.97034 3.733627,1.16271 0.98322,0.13094 1.18679,0.19888 1.3534,0.45321 0.48654,0.74269 1.13361,0.79617 2.95176,0.24288 l 0.952397,-0.28991 0.22893,-0.68368 c 0.38445,-1.14634 0.40578,-2.07369 0.0884,-3.9088 l -0.28784,-1.66192 0.60255,-0.8015 c 0.59742,-0.79487 0.60226,-0.80804 0.52916,-1.56373 -0.0405,-0.41917 -0.11269,-1.69135 -0.1602,-2.82721 -0.049,-1.17131 -0.14694,-2.14387 -0.22634,-2.2469 -0.0769,-0.0999 -0.68273,-0.4187 -1.346167,-0.70796 -1.10228,-0.48059 -3.04177,-1.53552 -3.58738,-1.9513 -0.58176,-0.44333 -0.70125,-3.35752 -0.23099,-5.63635 0.42549,-2.06186 0.80239,-3.11184 2.76985,-7.71271 1.01558,-2.3749 1.976477,-4.69965 2.135277,-5.16609 0.51565,-1.51461 0.69517,-3.00834 0.66197,-5.50354 -0.0224,-1.68313 0.0157,-2.41778 0.14521,-2.79208 0.36892,-1.06648 3.19077,-5.96333 4.881357,-8.470806 0.57927,-0.859166 1.4774,-2.192531 1.99574,-2.962609 0.51834,-0.77008 1.21945,-1.896541 1.55805,-2.503207 l 0.615467,-1.102775 0.60461,1.233001 c 0.54929,1.121119 1.28098,2.269622 3.05201,4.789371 1.26544,1.800405 1.921577,4.285195 1.663467,6.300395 -0.214507,1.67486 -0.528317,2.45485 -2.264457,5.63738 -0.54518,0.99938 -0.66997,1.14811 -0.99477,1.18081 -0.39005,0.0393 -0.35122,-0.0232 -2.432417,3.8902 -0.4341,0.81626 -0.50624,1.20058 -0.27078,1.43609 0.10737,0.1074 -0.004,0.47741 -0.43667,1.45417 -0.31916,0.72056 -0.73169,1.65261 -0.91674,2.07171 -0.67522,1.52922 -2.4694,6.90619 -3.24166,9.71413 -0.636407,2.31402 -1.233027,5.0882 -1.898597,8.82789 -1.1458,6.43818 -1.33621,8.47698 -1.23196,13.20798 0.0987,4.48168 0.25702,6.01129 1.66656,16.12925 0.77009,5.5279 1.11146,8.80148 1.17926,11.30267 0.10402,3.83806 -0.26607,5.44262 -2.18953,9.49037 -1.29719,2.72981 -2.45927,5.54863 -2.80241,6.79752 -0.131977,0.48034 -0.286637,0.79375 -0.391707,0.79375 -0.0955,0 -0.20607,0.1 -0.24547,0.22221 -0.0394,0.12224 -0.18373,0.4981 -0.32091,0.83509 -0.82068,2.01596 -1.06325,5.30589 -0.95136,12.91291 0.14667,9.97161 0.378,12.42995 2.353857,25.01914 0.8797,5.60498 2.00706,13.33949 2.30426,15.81144 0.46624,3.87806 0.3287,4.77251 -1.21078,7.87394 -1.22061,2.45902 -1.58105,3.78621 -1.678457,6.18156 -0.068,1.67227 -0.0581,1.76805 0.271307,2.59104 0.42647,1.06553 0.91602,1.7845 1.66191,2.4412 0.97377,0.85733 1.50494,1.03468 3.662307,1.22317 h 5.3e-4 c 2.51354,0.21955 2.31927,0.2172 3.19464,0.0336 1.68613,-0.35364 3.459897,-1.79422 4.251417,-3.45302 0.99703,-2.0895 1.11864,-5.75847 0.30747,-9.27594 -0.58469,-2.5354 -1.07712,-5.16342 -1.19889,-6.39805 -0.0691,-0.70074 -0.30157,-1.81097 -0.54777,-2.61483 -0.23532,-0.76835 -0.63008,-2.05444 -0.87695,-2.85771 -0.381367,-1.24091 -0.480167,-1.83258 -0.658877,-3.93671 -0.11568,-1.36208 -0.30591,-3.33389 -0.42219,-4.38164 -0.29117,-2.62322 -0.28477,-8.13564 0.0119,-10.41384 0.30856,-2.36972 0.46496,-3.165 1.874817,-9.52293 0.69672,-3.14194 1.66943,-7.97125 2.16111,-10.73164 0.80379,-4.51258 0.88634,-5.12776 0.81804,-6.10092 -0.0599,-0.85314 0.0451,-2.08588 0.49764,-5.82187 0.31574,-2.60684 0.68523,-5.17746 0.82063,-5.71231 0.531587,-2.0997 0.758867,-3.92705 0.834567,-6.71122 0.061,-2.243 0.20048,-3.08711 0.94672,-5.72523 0.5059,-1.78851 2.34575,-7.07214 3.893817,-11.18175 l 0.87126,-2.31252 0.0946,1.36684 c 0.26825,3.87499 1.56384,10.11194 3.22564,15.5267 0.46091,1.50178 0.892837,3.15911 0.959637,3.68298 0.16387,1.28528 -0.0408,3.74897 -0.680577,8.19175 -0.78374,5.44175 -0.86362,6.05399 -0.86662,6.63629 -0.002,0.41994 -0.0757,0.60425 -0.32866,0.82424 -0.92289,0.8026 -1.13792,1.72009 -0.87798,3.74344 0.56443,4.39351 1.3863,7.07678 3.753257,12.25455 1.30368,2.85183 1.4004,3.12191 1.82315,5.08806 0.39307,1.82809 0.47724,2.56148 0.70331,6.13244 0.28211,4.45604 0.59584,8.49568 0.74414,9.58029 0.0725,0.53027 -0.037,1.69261 -0.45475,4.82606 -0.48636,3.64845 -0.81807,7.55712 -0.81907,9.65213 -5.3e-4,0.85638 0.62412,2.2801 1.99057,4.53719 0.01,0.0158 0.663817,0.16854 1.454177,0.33951 1.35383,0.29286 1.46199,0.29893 1.86552,0.10646 l 0.4284,-0.20413 v -0.92914 -0.92914 h 0.56482 c 1.06016,0 3.601927,0.95189 5.303037,1.98541 0.42698,0.25944 1.181577,0.81097 1.676387,1.22576 1.01077,0.84728 2.20883,1.49431 3.24838,1.75442 0.43582,0.10904 1.41493,0.17522 2.604487,0.17622 l 1.90635,0.002 0.86609,-0.4439 c 0.52586,-0.26968 1.11125,-0.70777 1.490357,-1.11518 0.68454,-0.73566 0.71515,-0.81065 0.43046,-1.04696 -0.1706,-0.1416 -0.17115,-0.18516 -0.007,-0.3669 0.10267,-0.11347 0.30221,-0.4626 0.44339,-0.77567 0.50997,-1.13081 0.13405,-2.26189 -1.331707,-4.00595 -0.45065,-0.5362 -0.85428,-0.80545 -2.43499,-1.62316 -2.981347,-1.54229 -5.271477,-3.15694 -6.894157,-4.86172 -1.042387,-1.09512 -1.331137,-1.5087 -1.716687,-2.45773 -1.21557,-2.99213 -1.82849,-6.88766 -2.39831,-15.243 -0.48737,-7.14643 -0.70492,-16.72063 -0.47748,-21.01887 l 0.12092,-2.28565 -0.48473,-0.83715 -0.48472,-0.83716 0.12454,-2.78226 c 0.0768,-1.71593 0.22079,-3.29369 0.37517,-4.11603 0.33711,-1.79569 0.63045,-4.41349 0.63045,-5.6255 0,-0.61921 0.28384,-2.69349 0.75654,-5.52524 1.62579,-9.73965 2.07621,-13.21952 2.797767,-21.61522 0.73613,-8.56528 0.89333,-11.36277 0.86816,-17.43718 0.43177,0.45632 0.58306,0.52058 1.08573,0.53847 0.37914,0.0135 0.85103,-0.0764 1.19114,-0.22686 0.38925,-0.17225 0.76892,-0.23019 1.23145,-0.18707 0.4365,0.0407 0.900507,-0.0233 1.335837,-0.185 0.3669,-0.13634 0.78722,-0.21189 0.93379,-0.16795 0.49954,0.14988 0.657,0.12027 2.17919,-0.41186 2.221387,-0.77655 2.804607,-1.04798 3.041677,-1.41438 0.21843,-0.3376 0.14283,-1.16912 -0.17105,-1.87844 -0.27898,-0.63041 -0.3659,-1.18243 -0.19792,-1.25677 0.18799,-0.0832 0.0535,-0.62501 -1.074867,-4.3248 l -0.18965,-0.62012 -0.7829,-0.24236 c -0.43786,-0.13551 -1.55924,-0.26731 -2.54352,-0.29817 -2.272847,-0.0712 -2.517107,-0.0889 -3.133137,-0.22738 -0.51108,-0.11493 -0.51572,-0.11985 -0.75138,-0.86196 -0.61971,-1.95154 -0.79383,-3.40889 -0.76067,-6.36551 0.0246,-2.19129 -0.11979,-3.43023 -0.68937,-5.91385 -0.24202,-1.05532 -1.37149,-6.64817 -1.37149,-6.64817 l -0.0109,5.3e-4 c -0.13393,-0.64991 -1.376727,-7.03805 0.30696,-12.95993 0.50778,-2.36907 0.53381,-2.59795 0.59841,-5.279787 l 0.0672,-2.784843 0.0129,-0.01706 0.54829,-0.347266 c 0.72152,-0.45656 1.85775,-1.693854 2.1947,-2.390037 0.43014,-0.888812 0.52761,-1.699916 0.39687,-3.30419 -0.12949,-1.589069 -0.33796,-2.211139 -1.1405,-3.401344 -0.64889,-0.962355 -0.88733,-1.446445 -1.20974,-2.456695 -0.25902,-0.811599 -0.26531,-0.920994 -0.0997,-1.651064 0.0975,-0.430014 0.211,-1.704104 0.2527,-2.831867 0.15128,-4.092824 -0.60064,-6.214171 -2.533177,-7.14375 -0.73614,-0.354094 -0.94075,-0.388792 -2.98535,-0.505396 l -2.195217,-0.125056 -2.75694,-0.914156 c -1.51638,-0.502632 -2.798537,-0.95113 -2.849437,-0.996839 -0.088,-0.07897 0.34628,-3.929155 0.676447,-5.996017 l 0.15451,-0.967383 1.53531,-0.08888 c 1.46347,-0.08452 1.58908,-0.113969 2.67839,-0.635103 2.218777,-1.061471 4.247787,-2.751111 4.903577,-4.08347 0.35737,-0.725972 0.39353,-0.899518 0.33383,-1.607654 -0.0571,-0.677349 -0.25716,-1.185637 -1.36322,-3.461289 -0.71297,-1.46685 -1.43605,-3.031432 -1.60663,-3.477305 -0.50477,-1.319313 -1.33816,-6.698901 -1.639167,-10.579201 -0.0949,-1.22315 -0.17401,-1.35187 -1.17668,-1.919261 l -0.54828,-0.31006 0.3576,-0.271301 0.35811,-0.271817 -0.37724,0.135393 c -0.31374,0.112508 -0.40484,0.09808 -0.54001,-0.08682 -0.13439,-0.183769 -0.16227,-0.188685 -0.16227,-0.02739 0,0.107302 -0.10572,0.291105 -0.23513,0.408244 -0.22646,0.205002 -0.23825,0.17974 -0.31005,-0.676444 -0.0924,-1.102728 -0.37156,-1.69568 -0.31626,-0.671793 l 0.0362,0.667142 -0.41755,-0.476457 -0.41754,-0.476456 0.38912,0.795816 c 0.32151,0.658318 0.36377,0.842976 0.24495,1.065052 -0.11497,0.214865 -0.16619,0.233724 -0.25529,0.09302 -0.16988,-0.268277 -0.13716,-0.367205 0.0925,-0.279053 0.25308,0.09713 0.21733,0.0048 -0.2713,-0.702284 -0.5531,-0.800383 -1.18756,-1.478449 -1.28881,-1.377177 -0.0482,0.04826 0.0248,0.216217 0.16227,0.373105 0.60664,0.69247 0.55053,0.711954 -0.47595,0.166915 -1.695127,-0.900094 -3.007767,-1.229993 -5.190377,-1.304314 -0.252587,-0.0086 -0.497207,-0.01238 -0.734317,-0.01138 z m 0.729157,0.498678 c 0.22295,-0.0013 0.45465,0.0026 0.69763,0.01138 1.43382,0.05192 1.81856,0.114658 2.86287,0.467673 0.66344,0.224266 1.26024,0.461399 1.32654,0.527097 0.0754,0.07473 -0.20968,0.123293 -0.76172,0.129194 -0.48535,0.0052 -1.13939,0.0478 -1.45365,0.09508 -0.54251,0.08162 -0.49155,0.101785 1.01544,0.390157 1.769137,0.338537 2.158527,0.454512 2.158527,0.644922 0,0.08065 -0.5189,0.130892 -1.364777,0.132292 -1.83228,0.003 -3.88086,0.47336 -4.674137,1.073319 -0.22455,0.169831 -0.20665,0.175416 0.198437,0.06253 0.75084,-0.209238 2.54967,-0.489133 3.61839,-0.563274 1.00049,-0.06941 1.00811,-0.06815 0.48111,0.106971 -0.96415,0.320379 -2.29581,1.225648 -1.79783,1.222147 0.0958,-7.93e-4 1.00276,-0.142978 2.01538,-0.316259 2.254967,-0.385871 2.372627,-0.38812 2.478407,-0.05478 0.11634,0.366643 0.82452,1.148413 0.96273,1.062982 0.23122,-0.142931 0.11618,-1.033196 -0.19224,-1.487763 l -0.30644,-0.451652 0.70693,0.243396 c 0.38897,0.133847 0.7415,0.241345 0.7829,0.238744 0.0414,-0.0026 -0.15318,-0.206743 -0.43253,-0.453718 -0.43649,-0.385921 -0.4635,-0.437176 -0.19068,-0.363286 0.5095,0.138001 1.38207,0.594997 1.60351,0.839742 0.30421,0.336214 0.54943,2.518082 0.55243,4.919597 0.003,2.320591 0.228947,4.07576 0.729147,5.666837 0.17567,0.5588 0.89612,2.358798 1.60094,4.000273 1.53331,3.570975 1.56016,3.748 0.80564,5.234821 -0.54764,1.079153 -1.4658,2.110814 -2.49649,2.804998 -0.38316,0.258067 -0.725917,0.469474 -0.761717,0.46922 -0.0359,-2.27e-4 -0.0771,-0.614629 -0.0915,-1.365289 -0.0318,-1.658552 -0.2632,-2.667315 -0.2806,-1.223698 -0.0107,0.885843 -0.13957,1.780886 -0.39274,2.721279 -0.109,0.4049 -0.2206,0.512247 -0.77877,0.752412 -0.35825,0.154146 -0.95564,0.311975 -1.32756,0.350363 l -0.67645,0.06977 0.24908,-0.48886 c 0.13698,-0.26874 0.24588,-0.633484 0.24288,-0.810803 -0.005,-0.247943 -0.10765,-0.124428 -0.44597,0.53485 -0.31965,0.622914 -0.50869,0.857314 -0.69194,0.857314 -0.33277,0 -0.32506,-0.03704 0.18138,-0.8723 0.47662,-0.786093 1.2996,-2.608656 1.67122,-3.700034 l 0.23823,-0.698148 0.0853,0.698148 c 0.0471,0.384175 0.0933,0.98452 0.10232,1.33377 0.046,1.78121 0.76718,-2.161775 0.86558,-4.733044 0.0382,-0.996696 0.10362,-1.778481 0.14572,-1.737362 0.0421,0.04112 0.1734,0.913474 0.29146,1.938901 l 0.21446,1.864484 -0.0599,-3.682979 c -0.0331,-2.02565 -0.0961,-3.99747 -0.14005,-4.381645 l -0.0801,-0.698664 -0.21859,0.698664 -0.21859,0.698667 -0.14263,-0.571543 c -0.0785,-0.314325 -0.43425,-1.428583 -0.79064,-2.476333 -0.55893,-1.643216 -0.64506,-2.027312 -0.62736,-2.794146 l 0.0207,-0.888833 -0.70693,1.04748 c -0.3889,0.576263 -0.73213,1.047999 -0.76223,1.047999 -0.0301,0 0.0214,-0.185883 0.1142,-0.412896 0.42504,-1.039495 0.38357,-1.069771 -0.38602,-0.282154 -0.4114,0.42105 -1.005027,0.962221 -1.319297,1.203029 l -0.57154,0.438216 0.47077,-0.531233 c 0.44282,-0.499499 1.056817,-1.532652 0.965317,-1.62419 -0.0229,-0.02291 -0.398167,0.35637 -0.834057,0.843359 -0.46967,0.524712 -0.79272,0.799185 -0.79272,0.67386 0,-0.131175 -0.4589,0.227682 -1.20871,0.944644 -1.31104,1.253623 -2.594337,2.179365 -3.999237,2.88458 -0.94217,0.472935 -2.54091,1.10847 -2.61121,1.038178 -0.0227,-0.02273 0.25625,-0.17966 0.6196,-0.348814 0.99385,-0.462679 2.47386,-1.999231 3.05976,-3.176034 l 0.474387,-0.952397 -0.391707,-0.03979 c -0.29549,-0.03016 -0.61377,0.108064 -1.29759,0.562756 -1.03677,0.689385 -2.71006,1.439111 -3.914497,1.754415 -1.16643,0.305358 -3.33121,0.395814 -4.84724,0.202573 l -1.263057,-0.160718 0.27802,-0.296106 c 0.24953,-0.265671 0.35729,-0.28892 1.055227,-0.226859 1.6411,0.145926 4.0546,-0.724143 5.348517,-1.928564 0.41475,-0.386056 0.50679,-0.515022 0.2651,-0.371554 -0.20347,0.12079 -0.54732,0.323911 -0.763777,0.451652 -1.13618,0.670494 -3.81758,1.525037 -4.70721,1.500169 -0.29768,-0.0083 -0.22846,-0.05161 0.31729,-0.198956 2.03254,-0.548738 4.648797,-2.219542 5.849777,-3.736205 0.36987,-0.467096 0.19789,-0.38008 -2.056207,1.03973 -3.74204,2.357025 -3.50273,2.214888 -3.27422,1.942515 0.11106,-0.132371 1.42552,-1.640924 2.92076,-3.352249 1.495227,-1.711325 2.804167,-3.225986 2.908857,-3.365686 0.50157,-0.669319 -1.00416,0.777534 -2.484077,2.386934 -1.53394,1.668158 -4.61148,4.592116 -4.719617,4.483965 -0.0258,-0.02577 0.597227,-1.49674 1.384417,-3.268536 2.0714,-4.662244 3.23056,-6.241571 5.342307,-7.278624 1.34801,-0.66199 2.46645,-0.932111 4.027147,-0.942062 z m 6.226487,0.380339 c -0.0575,0 -0.11499,0.0087 -0.15864,0.02635 -0.0873,0.03523 -0.016,0.06408 0.15864,0.06408 0.17461,0 0.24646,-0.02885 0.15917,-0.06408 -0.0436,-0.01762 -0.10163,-0.02635 -0.15917,-0.02635 z m 0.75086,9.619051 c 0.10784,-0.0043 0.13798,0.107426 0.13798,0.333312 0,0.151061 0.35115,1.41302 0.77979,2.80448 0.55395,1.798219 0.77301,2.708129 0.75861,3.145546 -0.0497,1.507988 -1.91142,8.027866 -2.70733,9.481074 -1.089927,1.990072 -2.391717,3.18139 -3.627677,3.320211 -0.40003,0.04479 -1.44089,0.0865 -2.31356,0.0925 -1.312237,0.0091 -1.680697,-0.0317 -2.126477,-0.234095 -1.43506,-0.651539 -2.78206,-1.921066 -3.992527,-3.763076 -1.10262,-1.677898 -1.30758,-2.096304 -2.01486,-4.11448 -0.57209,-1.632431 -0.61629,-1.712693 -0.92346,-1.674831 -0.4568,0.05631 -0.65063,-0.304363 -1.04697,-1.947169 -0.39796,-1.649336 -0.38153,-2.837826 0.0455,-3.264916 0.24738,-0.247439 0.25908,-0.247968 0.4899,-0.01603 0.12997,0.130609 0.36287,0.408593 0.51779,0.617532 l 0.28164,0.379823 0.004,-0.595313 0.004,-0.595312 0.60306,-0.08578 c 0.33172,-0.04706 1.00982,-0.153215 1.50689,-0.235644 l 0.90382,-0.149862 -0.58653,0.532783 c -0.63792,0.579507 -0.65252,0.923349 -0.0165,0.388091 0.21451,-0.180536 0.59259,-0.366424 0.84026,-0.412895 0.510547,-0.0958 1.569987,0.01966 1.739947,0.189653 0.11261,0.11263 -1.23478,0.957225 -2.029847,1.272273 -0.57716,0.2287 -0.64094,0.505343 -0.13953,0.605649 0.34605,0.06922 0.36841,0.09469 0.15606,0.177766 -0.16661,0.06521 -0.18534,0.100703 -0.0574,0.108006 0.1693,0.0097 0.1693,0.02492 0,0.134358 -0.14814,0.09576 -0.11183,0.123555 0.16278,0.125055 0.24176,0.0013 0.473627,0.139475 0.735877,0.438216 0.68172,0.776595 2.40402,1.086297 3.01067,0.54157 0.11938,-0.10719 0.3854,-0.213883 0.59066,-0.237196 l 0.3731,-0.04237 -0.64182,-0.657841 c -0.47309,-0.484783 -0.77194,-0.681054 -1.13533,-0.746726 -0.2712,-0.04901 -0.5401,-0.11662 -0.5979,-0.14986 -0.0578,-0.03324 0.42758,-0.275182 1.07901,-0.537953 1.8093,-0.729827 3.146747,-1.566109 4.461217,-2.788976 0.673,-0.626086 0.87777,-0.743791 1.41852,-0.815972 0.76753,-0.102452 1.953347,-0.644356 2.752807,-1.258319 0.31027,-0.238284 0.49574,-0.358979 0.60358,-0.363286 z m -8.670794,2.35593 c 0.14749,-0.02238 0.0286,0.134429 -0.45578,0.631483 -0.38171,0.391668 -0.7817,0.706083 -0.88884,0.699183 -0.10713,-0.0069 -0.5298,-0.100386 -0.93947,-0.207738 l -0.74518,-0.19482 1.3162,-0.403593 c 0.72393,-0.221986 1.45942,-0.448972 1.63401,-0.504362 0.0316,-0.01005 0.058,-0.01696 0.0791,-0.02016 z m 7.614524,1.298112 c -0.55798,-0.02978 -1.127057,0.142935 -2.201927,0.563787 -0.78496,0.307343 -1.04748,0.468963 -1.04748,0.644406 0,0.322387 0.35733,0.299061 1.10019,-0.07235 0.33746,-0.168719 0.98229,-0.430392 1.432467,-0.581358 0.87217,-0.292476 0.8148,-0.296969 2.57762,0.206706 0.12221,0.03492 0.22221,0.0154 0.22221,-0.04289 0,-0.05829 -0.4426,-0.263411 -0.98392,-0.455787 -0.43362,-0.154099 -0.76436,-0.244647 -1.09916,-0.262514 z m -15.737541,1.494999 c -0.0815,-0.01601 -0.0477,0.207332 0.10594,0.659907 0.11374,0.335175 0.17329,0.754899 0.13229,0.93276 -0.0495,0.214537 -0.0362,0.265739 0.0398,0.151929 0.0794,-0.118967 0.14114,0.01722 0.20154,0.444415 0.0479,0.338831 0.11623,0.715955 0.15193,0.838192 0.12736,0.436751 0.30179,0.211651 0.30179,-0.389638 0,-0.739984 -0.31662,-1.86118 -0.66301,-2.348177 -0.13095,-0.184108 -0.22137,-0.279779 -0.27027,-0.289388 z m 16.182481,0.455268 c -1.08379,0 -2.870587,0.657979 -3.535707,1.301729 -0.48681,0.471167 -0.51458,0.60253 -0.12712,0.605131 0.15713,0.0011 0.54254,0.08338 0.85679,0.182417 1.3032,0.410713 2.004187,0.235363 2.976047,-0.744657 0.4215,-0.425037 0.75279,-0.815773 0.73639,-0.868164 -0.0165,-0.05239 0.07,-0.09755 0.19224,-0.100253 0.43256,-0.0097 -0.63779,-0.376203 -1.09864,-0.376203 z M 48.52675,49.175294 c 0.0976,-2.65e-4 0.1989,0.107719 0.27699,0.313158 0.0904,0.237794 0.20896,0.314973 0.47284,0.307475 0.19373,-0.0055 0.28108,-0.03867 0.19378,-0.0739 -0.21778,-0.08791 -0.20106,-0.423746 0.0212,-0.423746 0.57391,0 0.7413,0.324183 0.34985,0.67851 -0.25357,0.229537 -0.56818,0.255842 -0.99787,0.08268 -0.31416,-0.126601 -0.59838,-0.576498 -0.48266,-0.763778 0.05,-0.081 0.10733,-0.120235 0.16588,-0.120404 z m 8.849587,0.01138 c 0.22072,-0.0013 0.480597,0.263715 0.419617,0.580326 h 5.3e-4 c -0.024,0.124791 -0.155837,0.248084 -0.292487,0.274402 -0.20754,0.03998 -0.22239,0.0168 -0.091,-0.141592 0.12974,-0.156363 0.11229,-0.201371 -0.0997,-0.256833 -0.17155,-0.045 -0.23174,-0.134435 -0.17984,-0.269751 0.0501,-0.130614 0.14256,-0.185983 0.24288,-0.186552 z m 0.904347,0.111622 c 0.54864,0 0.26085,0.685139 -0.40463,0.963248 -1.069267,0.44686 -2.888177,-0.08648 -1.970427,-0.577742 0.20549,-0.110014 0.25177,-0.08522 0.28577,0.15348 0.0328,0.230097 0.15614,0.305937 0.64441,0.394808 0.76537,0.139311 1.297657,-0.137774 1.204057,-0.627353 -0.0485,-0.253768 -0.008,-0.306441 0.24082,-0.306441 z m -10.307384,0.0052 c 0.10376,2.27e-4 0.19534,0.06398 0.19534,0.191203 0,0.10795 0.1407,0.336529 0.31212,0.507979 0.23991,0.239959 0.44505,0.311608 0.89142,0.311608 0.51159,0 0.59737,-0.04121 0.72967,-0.349332 0.20428,-0.475758 0.19492,-0.469292 0.4129,-0.288354 0.32171,0.267055 0.23056,0.60012 -0.20619,0.752409 -0.51375,0.179131 -0.92048,0.16491 -1.64176,-0.05736 -0.65349,-0.20138 -1.07397,-0.585373 -0.9617,-0.877983 0.0488,-0.12713 0.16444,-0.190397 0.2682,-0.190169 z m 8.386047,0.130741 c 0.0655,-0.01852 0.17137,0.09068 0.27285,0.309541 0.0808,0.17408 0.13803,0.314743 0.12713,0.312642 -0.18299,-0.03569 -0.46406,-0.306509 -0.46406,-0.447 0,-0.107066 0.0248,-0.164068 0.0641,-0.175183 z M 40.753586,50.80672 c 0.0209,0.0032 0.004,0.120261 -0.0295,0.332795 -0.14831,0.929569 -0.80298,2.744129 -1.42524,3.951182 -0.33812,0.655891 -0.59632,1.192691 -0.57412,1.192691 0.0222,0 0.31988,-0.414462 0.66146,-0.920874 0.74487,-1.104376 1.28324,-2.154454 1.67638,-3.270083 0.15999,-0.454025 0.33352,-0.875004 0.38602,-0.935345 0.18667,-0.214415 0.26617,1.288077 0.11937,2.256711 -0.17395,1.147892 -0.47217,2.068452 -1.02526,3.163112 l -0.39739,0.786 0.41031,-0.381373 c 0.5745,-0.533672 1.523297,-2.01038 1.897557,-2.953308 0.17342,-0.436919 0.37352,-0.772758 0.44442,-0.746207 0.17867,0.0669 0.1402,0.181383 -0.63924,1.905826 -0.37849,0.837374 -0.668167,1.543063 -0.643367,1.567865 0.0248,0.02479 0.381097,-0.498274 0.791677,-1.162204 0.4106,-0.663929 0.77614,-1.208995 0.81184,-1.211296 0.0357,-0.0024 0.1956,0.452755 0.35554,1.010793 l 0.29093,1.014407 -0.25528,0.576709 c -0.14023,0.317072 -0.45006,0.817716 -0.68884,1.112592 -0.23878,0.294878 -0.52681,0.719034 -0.64028,0.942578 -0.22784,0.448932 -0.27834,1.098897 -0.0801,1.032497 0.37438,-0.125397 1.30001,-1.024168 1.71773,-1.668116 0.657,-1.012799 0.84605,-0.808784 0.46147,0.498679 -0.15662,0.532516 -0.26038,0.992814 -0.23048,1.022675 0.0299,0.02986 0.22554,-0.153937 0.43512,-0.408244 0.20958,-0.254304 0.41092,-0.4137 0.44752,-0.354499 0.0931,0.150651 0.47077,2.008793 0.47077,2.316654 0,0.188481 -0.10619,0.269806 -0.4129,0.316775 -0.22696,0.03476 -0.78422,0.09908 -1.23816,0.142629 l -0.82528,0.07906 0.50281,-0.435115 0.5023,-0.435116 -0.43873,-0.07545 c -0.24151,-0.04152 -0.89651,-0.111499 -1.4552,-0.155538 -2.764647,-0.217932 -5.143667,-1.813312 -5.676664,-3.806487 l -0.15399,-0.576193 1.265557,-1.236618 c 1.29419,-1.264322 2.22751,-2.531099 2.87062,-3.896402 0.19476,-0.413491 0.28369,-0.597924 0.31058,-0.593762 z m 13.535091,2.040186 c -0.22853,0.01805 -0.58286,0.170426 -0.84543,0.401008 l -0.44803,0.393258 -0.56276,-0.330213 C 51.79778,52.938936 51.59737,52.90214 51.59737,53.156447 c 0,0.0963 0.16532,0.243689 0.36793,0.327629 0.20261,0.08394 0.498577,0.290912 0.657327,0.459919 0.15874,0.169008 0.34374,0.306959 0.41134,0.306959 0.16862,0 1.48363,-1.134038 1.48363,-1.279509 0,-0.09782 -0.0918,-0.135358 -0.22892,-0.124539 z m -2.518197,3.8809 -1.10432,0.568958 -1.10381,0.568957 0.47542,0.164846 c 0.26148,0.09054 0.64801,0.327126 0.85886,0.52555 0.21084,0.198427 0.4975,0.423825 0.63717,0.500745 0.33722,0.185714 2.795497,0.18814 3.150717,0.0031 0.15254,-0.07946 0.57153,-0.420032 0.93069,-0.756542 0.64126,-0.60084 0.64805,-0.615188 0.38086,-0.788583 -0.69929,-0.453813 -1.73459,-0.715179 -2.97191,-0.750858 z m 0.18914,0.276985 c 0.14647,-0.0031 0.29979,0.04631 0.576187,0.145727 0.5439,0.195678 0.62602,0.195598 1.16841,5.29e-4 0.54792,-0.197075 0.6132,-0.196096 1.08572,0.01551 l 0.50333,0.225308 -0.6103,0.08837 c -1.22531,0.177639 -2.01066,0.206129 -2.19677,0.07958 -0.10475,-0.07124 -0.504727,-0.134559 -0.888827,-0.14056 l -0.69867,-0.01085 0.52658,-0.234093 c 0.24871,-0.110656 0.38786,-0.166365 0.53434,-0.1695 z m 3.334677,0.681611 c 0.31233,-0.0072 0.49299,0.02785 0.49299,0.105937 0,0.161914 -0.81497,0.759235 -1.32911,0.974103 -0.26464,0.110599 -0.86156,0.183967 -1.49604,0.183967 -0.992617,0 -1.099117,-0.02758 -1.788517,-0.458888 -0.40322,-0.252264 -0.70721,-0.484904 -0.67541,-0.516763 0.0319,-0.03186 0.60368,-0.01744 1.27072,0.03152 0.960027,0.07048 1.224227,0.13153 1.267627,0.294039 0.0397,0.14877 0.0591,0.13357 0.0698,-0.05478 0.0125,-0.22003 0.15141,-0.282972 0.90588,-0.412377 0.52598,-0.09021 0.96977,-0.13956 1.2821,-0.146762 z m 1.98593,3.857646 c 0.0286,0.02865 -0.0326,0.499777 -0.13591,1.046965 -0.38204,2.023813 -0.77891,5.585039 -0.91003,8.170044 l -0.0672,1.33377 0.48731,-1.397333 c 0.26812,-0.76835 0.54162,-1.396812 0.60772,-1.396812 0.23682,0 3.604427,1.376971 3.604427,1.473811 0,0.05442 -0.39899,0.227507 -0.88625,0.384474 -0.48726,0.156961 -0.87214,0.299357 -0.85525,0.316259 0.0169,0.01691 1.20082,-0.07884 2.63085,-0.212392 2.800137,-0.261501 3.396827,-0.230057 4.986267,0.260967 0.72734,0.224697 0.92559,0.364191 1.759577,1.237652 1.31866,1.381051 1.49585,2.090317 1.25987,5.048268 -0.19821,2.484657 -0.28312,3.141139 -0.39119,3.023074 -0.0515,-0.05629 -0.47583,-0.959363 -0.94258,-2.007113 -1.131657,-2.540326 -1.282327,-2.67556 -0.892967,-0.802019 0.39514,1.901415 1.280277,4.058865 2.435507,5.938139 0.38617,0.62819 0.34645,0.614424 -0.91415,-0.316261 -0.899647,-0.664192 -4.149597,-2.10897 -4.332557,-1.925979 -0.0478,0.04782 0.10754,0.84501 0.3452,1.771467 0.42709,1.664769 0.43186,1.715056 0.41496,4.28811 -0.0161,2.453135 -0.0408,2.702333 -0.42271,4.31705 -0.22292,0.942531 -0.43004,1.738524 -0.46044,1.768883 -0.0944,0.09439 -1.58343,-0.659022 -2.576067,-1.30328 -0.52084,-0.338044 -1.28048,-0.932838 -1.68827,-1.321882 -0.40779,-0.389043 -0.76117,-0.683847 -0.78496,-0.655256 -0.0238,0.02858 -0.38008,0.651658 -0.79169,1.384411 -0.41162,0.73275 -0.91169,1.51846 -1.111557,1.746147 -0.19987,0.227684 -0.33902,0.413927 -0.30903,0.413927 0.0301,0 0.589057,-0.399883 1.241787,-0.888833 0.65273,-0.48895 1.22669,-0.889352 1.27589,-0.889352 0.0492,0 0.16042,0.08532 0.24702,0.189653 0.41844,0.504288 2.34807,1.37885 3.603397,1.632974 0.55342,0.11203 0.76181,0.155768 0.83561,0.658876 a 18.040693,31.337348 0 0 0 -0.009,0.01035 c 0.0429,0.303144 0.0383,0.768525 0.031,1.51102 -0.015,1.525296 -0.18255,2.322676 -1.54099,7.343223 l -1.025777,3.79098 10e-4,1.73374 c 2.6e-4,0.95347 0.0829,2.24538 0.18448,2.87114 0.10152,0.62577 0.17133,1.15108 0.15503,1.16737 -0.0362,0.0362 -1.60871,0.29433 -1.80816,0.29663 -0.0873,-0.0101 -0.0979,-0.19982 -0.032,-0.59997 0.11981,-0.72809 0.12183,-3.25485 0.004,-4.223 l -0.0853,-0.69814 -0.006,0.0393 -0.005,-0.0408 -0.22996,1.39682 c -0.12626,0.76835 -0.29809,2.02579 -0.38189,2.79414 l -0.15244,1.39683 -0.63097,0.0889 h -5.3e-4 c -0.53636,0.0749 -1.484377,0.11896 -2.572447,0.14056 a 18.040693,31.337348 0 0 0 0,0.002 c -2.93051,0.0577 -6.935677,-0.0619 -7.169077,-0.28887 -0.0589,-0.0573 0.63365,-1.66725 1.53893,-3.57808 2.524427,-5.32845 2.624257,-5.72185 2.628257,-10.324944 l 0.003,-3.293856 -0.61906,-0.57979 C 51.60562,94.652625 50.62589,93.165113 50.01284,91.525739 c -0.30735,-0.821904 -1.80688,-6.713146 -2.2872,-8.985498 -0.12928,-0.611572 -0.27027,-0.98392 -0.37207,-0.98392 -0.0901,0 -0.380737,0.328552 -0.645957,0.730189 -1.1039,1.671723 -2.5369,3.373864 -3.52226,4.18424 -0.68181,0.560713 -0.85628,0.585954 -0.85628,0.122989 0,-0.200477 -0.2556,-0.472731 -0.886767,-0.94516 -0.48752,-0.364906 -0.91266,-0.663528 -0.94516,-0.663528 -0.0325,0 0.12834,0.332243 0.3576,0.737942 0.37021,0.655095 0.42577,0.881906 0.49557,2.027266 l 0.0786,1.289326 -0.47025,0.07596 c -1.04045,0.16773 -1.7766,0.362 -2.4846,0.655775 -0.40912,0.169765 -0.76604,0.286626 -0.79324,0.259416 -0.0272,-0.02721 0.0934,-0.468802 0.26769,-0.981337 0.17429,-0.512532 0.30255,-0.944777 0.28525,-0.960146 -0.0173,-0.01537 -0.86013,1.288354 -1.872757,2.896981 -1.01262,1.608624 -1.87799,2.982216 -1.92339,3.052527 -0.0466,0.07216 -0.46137,-0.193969 -0.9524,-0.611333 -2.20567,-1.874772 -4.404217,-2.884546 -6.678657,-3.066997 -0.54123,-0.04342 -0.984437,-0.132747 -0.984437,-0.198438 0,-0.342969 1.231467,-2.588926 1.951817,-3.55999 0.65521,-0.883245 0.84964,-1.072382 0.93844,-0.913638 0.0746,0.133274 0.22716,-0.622564 0.4563,-2.260843 0.58238,-4.163616 1.47851,-8.109275 2.140957,-9.424749 1.01663,-2.018779 2.90774,-3.692112 4.83382,-4.277257 0.746247,-0.226714 1.085887,-0.25482 2.354377,-0.196371 1.01607,0.04681 1.71094,0.148923 2.20916,0.325043 0.78906,0.278924 9.099354,1.979557 9.196864,1.882058 0.11537,-0.115405 -1.81322,-1.088053 -3.130567,-1.578726 -0.73327,-0.273126 -1.93322,-0.655127 -2.6665,-0.849045 -2.00367,-0.529876 -1.91033,-0.425625 -1.05058,-1.17357 0.9426,-0.820015 2.26047,-2.381292 3.47627,-4.117578 l 0.943097,-1.346171 0.69608,0.361736 c 0.38301,0.198961 1.14525,0.47508 1.69344,0.613915 0.89245,0.226021 1.13112,0.23808 2.28513,0.113689 0.708857,-0.07641 1.581127,-0.220141 1.937867,-0.319363 0.74046,-0.205938 1.84179,-0.837591 2.61328,-1.4981 0.29005,-0.248316 0.5512,-0.42759 0.57981,-0.398941 z m 1.235577,18.05523 c -0.0236,-0.0011 -0.026,0.03426 5.3e-4,0.115237 0.32803,1.003763 0.85357,3.349813 1.08314,4.834332 0.15053,0.97341 0.3061,1.912585 0.3452,2.08721 0.13297,0.594572 0.39351,-0.599977 0.40411,-1.852599 0.0116,-1.36924 -0.30988,-2.774476 -0.87747,-3.838527 -0.34633,-0.649248 -0.85316,-1.340845 -0.95549,-1.345653 z m 6.798037,2.718697 c 0.0448,0 0.63641,0.226269 1.31465,0.502293 0.88003,0.358145 1.629577,0.794512 2.617407,1.523939 0.76133,0.562176 1.43207,1.02216 1.49087,1.02216 0.20013,0 1.09531,2.328698 1.15032,2.992583 0.03,0.361138 -0.0132,1.058336 -0.0961,1.549775 -0.0355,0.210606 -0.0817,0.412187 -0.13385,0.608233 a 18.040693,31.337348 0 0 0 -0.0124,0.0026 c -0.46653,1.749314 -1.59216,2.918741 -3.36155,3.480925 -0.279347,0.08876 -0.736607,0.281339 -1.015957,0.427881 l -0.50798,0.26665 0.0114,0.0016 0.50902,0.06408 0.0114,0.0016 0.50901,0.06408 -1.19063,3.936709 c -2.10322,6.954957 -2.4762,8.569537 -2.89853,12.539807 -0.0946,0.8896 -0.20786,1.67534 -0.25166,1.74614 -0.0438,0.0708 -0.2079,0.12868 -0.36484,0.12868 -0.0297,0 -0.0556,-0.002 -0.0801,-0.006 -0.185067,-0.0376 -0.235447,-0.25406 -0.410307,-1.35754 -0.11897,-0.75089 -0.21613,-1.95346 -0.21549,-2.6727 0.001,-1.24408 0.0565,-1.51315 1.133777,-5.52473 1.45322,-5.411445 1.45548,-5.422481 1.46348,-7.486879 l 0.007,-1.746147 0.31729,-0.0041 c 0.30108,-0.0037 0.30442,-0.01117 0.0636,-0.145727 -0.13967,-0.07803 -0.26955,-0.153588 -0.28835,-0.167947 -0.0188,-0.01437 0.14743,-0.763133 0.36897,-1.663981 0.39398,-1.601835 0.40283,-1.705147 0.41083,-4.686019 0.008,-2.877974 -0.01,-3.113262 -0.31213,-4.222483 -0.17621,-0.64611 -0.28396,-1.17512 -0.23926,-1.17512 z m -18.097091,0.10232 0.1447,0.552421 c 0.0796,0.30371 0.44442,1.837986 0.8108,3.409611 1.28311,5.504024 2.21803,7.688165 4.04782,9.455235 0.285907,0.276114 0.519857,0.547912 0.519857,0.60358 0,0.178004 -1.307077,0.09055 -2.094957,-0.140041 -1.78446,-0.522266 -4.100307,-1.700779 -5.275127,-2.684592 -0.75821,-0.634929 -1.53051,-1.725837 -1.89705,-2.679938 -0.34853,-0.907206 -0.91889,-3.439157 -0.79685,-3.536736 1.70685,-1.364784 2.15343,-1.824834 3.49798,-3.601847 z m -8.063074,1.561145 c -0.75036,-0.01352 -2.07751,0.326752 -2.966227,0.760158 -0.79788,0.389115 -2.36678,1.652061 -2.36678,1.905312 0,0.06399 0.0219,0.116272 0.0486,0.116272 0.0267,0 1.32662,-0.624266 2.888717,-1.386997 2.36064,-1.152654 2.7651,-1.388046 2.39572,-1.394745 z m 2.04019,5.575887 h 0.47542 l 0.0904,0.657839 c 0.100227,0.728845 0.952477,2.463355 1.693957,3.447851 0.89021,1.181974 2.63501,2.380062 4.522717,3.105754 1.08912,0.41869 2.79685,0.513101 3.98994,0.220659 0.501847,-0.123012 0.937187,-0.198704 0.967387,-0.168465 0.0302,0.03024 0.0648,1.337037 0.0765,2.904215 0.0316,4.24758 -0.1654,5.00213 -2.699067,10.34252 -1.20037,2.53011 -1.68585,3.43269 -1.8526,3.44268 -0.12429,0.007 -0.42634,-0.0114 -0.67076,-0.0418 -0.793387,-0.0987 -6.622054,-1.17566 -6.732404,-1.24385 -0.0589,-0.0364 0.25535,-0.66455 0.69867,-1.39578 1.297647,-2.14043 1.712547,-3.7094 1.712037,-6.47609 -5.3e-4,-2.84198 -0.0743,-3.14493 -1.21647,-5.006418 -2.295027,-3.740417 -2.725747,-4.481026 -3.590477,-6.16965 -0.50077,-0.9779 -0.9434,-1.958215 -0.9834,-2.178677 -0.0688,-0.37942 -0.0395,-0.416031 0.54415,-0.677479 0.80671,-0.36136 2.37332,-0.763259 2.97398,-0.763259 z M 25.821675,91.09625 c 0.226467,-0.0054 0.643477,0.02514 1.069707,0.08217 2.26334,0.302892 4.360327,1.339437 6.191867,3.061311 l 0.77463,0.72812 -1.43557,2.152325 c -0.78942,1.183785 -1.946477,2.833642 -2.571417,3.666434 -1.39632,1.86076 -2.22988,3.2976 -2.88251,4.96714 -0.6992,1.78883 -0.75926,2.14304 -0.76326,4.47828 -0.005,3.00407 -0.311947,4.24784 -1.966807,7.95559 -1.01511,2.27436 -1.8255,4.42469 -2.39676,6.35827 -1.600917,5.4197 -2.221597,9.22303 -1.596277,9.78906 0.18807,0.17026 0.24288,0.39275 0.24288,0.98702 v 0.76688 l 0.419087,-0.40566 c 0.23029,-0.22325 0.51021,-0.40618 0.62219,-0.40618 0.27025,0 4.444907,2.07481 4.629177,2.30064 0.22642,0.2775 0.42426,1.8718 0.42426,3.41943 0,1.24921 -0.0324,1.4623 -0.27492,1.80299 l -0.27492,0.38602 -0.417027,-0.81132 -0.41754,-0.81132 -0.006,1.13637 c -0.003,0.62496 -0.0668,1.76785 -0.14056,2.53989 -0.0738,0.77206 -0.11649,2.07685 -0.0951,2.89905 l 0.0388,1.495 0.54001,-0.69195 c 0.2968,-0.38039 0.539507,-0.72591 0.539507,-0.76791 0,-0.042 -0.168617,0.0107 -0.374657,0.11731 -0.5008,0.25903 -0.51418,0.25425 -0.51418,-0.19896 0,-0.36944 0.34441,-1.13119 0.5116,-1.13119 0.10842,0 0.504357,0.85952 0.504357,1.09502 0,0.10844 -0.12209,0.61576 -0.27078,1.12758 -0.265847,0.91517 -0.278657,0.93314 -0.793237,1.06712 h -5.3e-4 c -0.28778,0.0749 -0.79066,0.21838 -1.11776,0.31936 -0.71288,0.22008 -0.62789,0.30135 -1.48621,-1.41645 l -0.64958,-1.30018 0.4129,0.25166 c 0.41812,0.25499 1.54068,0.35558 1.66811,0.14935 0.0353,-0.057 -0.48974,-0.37547 -1.16685,-0.70745 l -1.23093,-0.60358 -1.367357,0.24701 -1.36736,0.24753 -0.59738,-0.4563 c -0.55342,-0.42265 -0.67884,-0.46182 -1.69861,-0.52452 -1.614087,-0.0993 -1.635107,-0.12724 -1.637107,-2.21433 -8.7e-4,-0.91468 -0.0572,-3.20625 -0.12505,-5.0922 -0.10218,-2.8393 -0.0928,-3.5451 0.0553,-4.10311 0.0984,-0.37065 0.23397,-0.74187 0.30127,-0.82527 0.255547,-0.31637 0.555907,-3.71255 0.784967,-8.87956 0.14036,-3.16606 0.56734,-6.87142 1.08675,-9.43302 0.32079,-1.58206 1.59617,-6.01059 2.29289,-7.96127 0.18244,-0.51081 0.74752,-1.76906 1.25573,-2.79621 0.775357,-1.56707 1.245817,-2.84108 2.922817,-7.916309 1.28164,-3.878712 2.06761,-6.074717 2.19109,-6.122106 0.0265,-0.01016 0.0806,-0.01577 0.15606,-0.01757 z m 42.793773,4.686535 c 0.14855,0.03483 0.23569,0.93985 0.23668,2.472719 7.9e-4,1.27976 -0.0789,1.912366 -0.49764,3.946526 -0.274257,1.33231 -0.618477,3.24686 -0.764817,4.25452 -0.14635,1.00767 -0.25963,2.05552 -0.24029,3.08767 0.0386,2.06173 0.71054,6.14536 0.71055,6.14536 l 0.0186,0.002 0.791677,4.1801 c 0,0 0.8454,4.15579 0.88935,7.29258 0.0625,4.45932 0.16616,5.20944 1.06247,7.68945 l 0.37724,1.04542 -0.4284,-0.0264 c -0.23584,-0.0143 -0.44188,0.009 -0.45785,0.0496 -0.0681,0.17609 0.87296,0.49171 1.34824,0.45217 1.43829,-0.11967 6.198907,-0.0109 6.443527,0.14728 0.20126,0.1301 0.28924,0.29162 0.34055,0.62528 0.0526,0.34167 0.904637,3.30552 1.035077,3.6003 0.0126,0.0284 -0.49699,0.32459 -1.132227,0.65836 -0.63525,0.33371 -1.31782,0.7336 -1.5167,0.88832 -0.19886,0.15471 -0.62009,0.43845 -0.93638,0.62993 l -0.57516,0.34779 -0.16071,-0.36329 c -0.24823,-0.56095 -0.20816,-1.26967 0.0971,-1.72341 0.23456,-0.34912 0.41893,-0.46573 1.19631,-0.76326 1.01369,-0.38799 1.02647,-0.58145 0.031,-0.45579 -0.46267,0.0584 -0.54676,0.0274 -0.58446,-0.21497 -0.0243,-0.15576 -0.062,-0.3253 -0.0837,-0.37672 -0.0216,-0.0513 0.0979,-0.24223 0.26561,-0.42426 0.3924,-0.42568 0.1222,-0.30426 -0.66611,0.2992 -0.34233,0.26209 -1.0169,0.65265 -1.49913,0.86713 -1.192867,0.53115 -2.273917,0.6106 -3.864367,0.28629 -0.34264,-0.0699 -0.65658,-0.12285 -0.89245,-0.15348 -0.0263,-1.3726 -0.0635,-2.58319 -0.11989,-3.68401 0.0105,-0.0154 0.0215,-0.0321 0.0305,-0.0434 l 0.26717,-0.33641 -0.31212,0.13384 c -0.16003,-2.93528 -0.46527,-5.45198 -1.112597,-10.12238 -0.24203,-1.74625 -0.55502,-3.86748 -0.69556,-4.71392 -0.11977,-0.72128 -0.20576,-1.29197 -0.23307,-1.51929 -0.11795,-2.54529 -0.005,-4.50198 -0.52038,-6.38824 0,0 -0.11663,-0.63611 -0.77463,-0.74828 l -0.76533,-4.41058 0.21084,-0.88883 c 0.11589,-0.48895 0.82453,-2.8893 1.5751,-5.33405 0.75058,-2.444746 1.46753,-4.887784 1.593187,-5.429122 0.12375,-0.533106 0.26319,-0.968663 0.31316,-0.981853 z M 38.713916,112.56316 c 0.0231,-0.0245 0.4779,0.0583 1.01079,0.18396 0.87221,0.20567 0.96145,0.25428 0.89245,0.48886 -0.36252,1.23338 -0.56729,2.21934 -0.64389,3.09749 -0.0497,0.57033 -0.1261,1.03126 -0.1695,1.02526 -0.10954,-0.0156 -2.77508,-0.83746 -3.01531,-0.92966 -0.16591,-0.0637 -0.14358,-0.16731 0.14676,-0.67851 0.1884,-0.3317 0.65627,-1.17425 1.03972,-1.87275 0.38347,-0.6985 0.71588,-1.29015 0.73898,-1.31465 z m 3.06441,0.7028 c 0.166927,5.3e-4 0.435207,0.0443 0.908987,0.13229 0.97842,0.18177 1.05197,0.21682 0.97927,0.46509 -0.43141,1.47248 -0.57671,2.28138 -0.57671,3.20962 0,0.76824 -0.0435,1.05651 -0.15864,1.04851 -0.0873,-0.006 -0.61593,-0.13463 -1.174607,-0.2868 l -1.01596,-0.27699 0.0393,-0.88728 c 0.0436,-0.99542 0.46633,-2.97906 0.69815,-3.27525 0.0679,-0.0867 0.13331,-0.12961 0.30024,-0.12919 z m 23.559285,0.35966 c 0.38628,0.0763 0.65991,1.3567 0.65991,3.15795 v 1.50999 l -0.82527,0.23151 c -0.44758,0.12556 -0.82855,0.2282 -0.86868,0.23306 -0.016,-0.0111 0.0999,-0.15665 0.27285,-0.34003 0.52788,-0.55955 0.67992,-1.27092 0.4315,-2.019 -0.17018,-0.51249 -0.32058,-0.69606 -0.86042,-1.04955 -0.69083,-0.45235 -1.202297,-0.67105 -2.138367,-0.91467 l -0.57154,-0.14883 1.777667,-0.29559 c 0.9777,-0.16253 1.89996,-0.32524 2.04949,-0.36174 0.0248,-0.006 0.0489,-0.006 0.0729,-0.003 z m -20.321238,0.22325 c 0.22146,0.003 0.53682,0.0606 1.01234,0.13487 3.229017,0.50399 5.667307,0.71934 8.144724,0.71934 h 1.67328 l -0.56534,0.30282 c -0.91126,0.4875 -1.50337,1.05409 -1.66501,1.5937 -0.30419,1.01549 0.14269,1.87279 1.3317,2.55489 l 0.64905,0.37258 -1.46037,-0.0217 c -0.80311,-0.012 -1.74579,-0.0411 -2.094967,-0.0641 -1.49382,-0.0985 -5.319047,-0.58174 -6.666257,-0.84233 l -1.46037,-0.28267 0.0119,-1.20303 c 0.008,-0.84428 0.0938,-1.46865 0.28577,-2.09237 0.28388,-0.92256 0.31635,-1.17907 0.80356,-1.17203 z m 14.453381,1.18184 c 0.39349,0.001 0.77154,0.0196 1.13068,0.0527 0.17529,0.0163 0.34673,0.0356 0.51263,0.0589 0.002,2.1e-4 0.003,7.9e-4 0.005,0.001 2.203927,0.31058 3.543837,1.21892 3.119707,2.27532 -0.20548,0.51181 -1.14724,1.14374 -2.221047,1.49035 -0.83203,0.26857 -2.94419,0.40495 -4.12999,0.29662 -0.16728,-0.0156 -0.316357,-0.0357 -0.439757,-0.0615 -0.16344,-0.0341 -0.32079,-0.0701 -0.47181,-0.108 -0.14059,-0.0353 -0.27445,-0.0727 -0.40411,-0.1111 -0.0357,-0.0106 -0.0695,-0.0217 -0.10438,-0.0326 -0.0927,-0.0287 -0.18304,-0.0581 -0.26976,-0.0884 -0.0394,-0.0138 -0.0776,-0.0278 -0.11575,-0.0419 -1.57997,-0.58258 -2.09577,-1.4288 -1.31775,-2.3151 0.62318,-0.7099 1.67215,-1.15637 3.122807,-1.3317 0.24178,-0.0292 0.49517,-0.051 0.75913,-0.0651 0.26395,-0.0142 0.53885,-0.0206 0.82475,-0.0196 z m -21.669998,2.59364 c 0.0811,10e-6 0.60455,0.14312 1.16324,0.31832 2.17927,0.6834 6.015477,1.51256 8.761224,1.89343 2.55864,0.35494 4.28721,0.45437 7.907007,0.45475 l 3.577557,5.3e-4 -0.0584,0.28474 c -0.0322,0.15716 -0.087,1.00014 -0.12144,1.87327 l -0.0625,1.5875 0.0139,-0.0574 -0.002,0.0584 0.23513,-0.95291 c 0.12923,-0.52387 0.30259,-1.3858 0.38499,-1.91565 l 0.14986,-0.96325 1.63814,-0.1819 c 0.91202,-0.10121 1.32068,-0.13878 1.5012,-0.1111 0.102817,0.018 0.125577,0.0595 0.125577,0.12557 0,0.39199 -0.399277,3.27361 -0.710547,5.12992 -0.17472,1.04198 -0.30037,2.01025 -0.27957,2.15181 0.003,0.0173 0.009,0.0204 0.017,0.015 0.0919,0.13714 1.140487,-3.61781 1.554427,-5.58364 0.17649,-0.8382 0.35022,-1.65253 0.38602,-1.8097 0.0361,-0.15854 0.16101,-0.28577 0.2806,-0.28577 0.11856,0 0.46295,-0.0943 0.76533,-0.20981 0.2391,-0.0914 0.44929,-0.13659 0.56586,-0.12609 0.0338,0.004 0.0594,0.0136 0.0729,0.0289 0.0555,0.0631 0.28934,1.30374 0.51935,2.75694 l 0.41806,2.64221 -0.31729,0.34262 c -4.260037,4.59406 -5.647597,6.26745 -8.512147,10.50633 a 18.040693,31.337348 0 0 0 0.004,0.0129 c -0.345247,0.51098 -0.700427,1.03983 -1.096567,1.63556 -0.51094,0.76835 -1.21218,1.78264 -1.55805,2.25413 -0.34587,0.47148 -0.67287,0.85731 -0.72657,0.85731 -0.0537,0 -0.1327,-0.25666 -0.1757,-0.57051 -0.18446,-1.34608 -2.435107,-6.22497 -3.840587,-8.32559 -2.95163,-4.41148 -6.679817,-7.1428 -12.495364,-9.15396 -1.430247,-0.49461 -2.082587,-0.77825 -2.055687,-0.894 0.10408,-0.44788 1.842477,-3.78893 1.971447,-3.78892 z m -2.350757,4.59093 1.185457,0.32143 c 0.65215,0.17673 1.69513,0.51668 2.31769,0.75551 1.22368,0.46943 4.056257,1.89112 4.262267,2.1394 0.0876,0.10561 -0.36286,1.79065 -1.464507,5.47564 -2.64541,8.84885 -3.42445,12.45466 -4.30413,19.92746 -0.57357,4.8725 -0.57117,4.8235 -0.956017,22.66942 -0.15903,7.37421 -0.41076,9.42992 -1.76785,14.43633 -0.34403,1.26914 -0.78468,3.08508 -0.97927,4.03541 -0.32473,1.58589 -0.36819,1.70385 -0.52658,1.43867 -0.1612,-0.26998 -0.16672,-0.2598 -0.0806,0.15555 0.12369,0.59663 0.11671,0.8165 -0.11782,3.68298 -0.11145,1.36208 -0.26475,3.84832 -0.34055,5.52472 -0.0758,1.6764 -0.16547,3.14196 -0.19947,3.25665 -0.034,0.1147 -0.18883,0.24221 -0.34365,0.28371 -0.55129,0.14781 -0.72644,0.0699 -1.530137,-0.68213 -1.34732,-1.2606 -2.27777,-2.75308 -3.38842,-5.43533 l -0.54106,-1.30741 0.27699,-0.95498 c 0.23956,-0.82462 1.12847,-2.94435 3.05563,-7.28897 0.77977,-1.75791 1.525327,-4.02452 1.854667,-5.63738 0.24398,-1.19477 0.3085,-1.89944 0.3085,-3.37705 0,-2.84919 -0.25842,-5.26193 -1.775077,-16.57625 -0.91893,-6.85526 -0.97272,-7.32474 -1.15755,-10.09654 -0.41724,-6.25708 0.38598,-12.96489 2.615857,-21.84415 0.98594,-3.92598 2.2663,-7.89453 3.30522,-10.24537 z m 31.067352,3.50935 c 0.009,-8e-4 0.0146,7.9e-4 0.0165,0.007 0.037,0.10982 0.31369,1.98289 0.94051,6.36912 0.50333,3.52213 0.51905,3.74274 0.59945,8.19175 0.0678,3.7511 0.0294,7.2251 -0.12919,10.8846 a 18.040693,31.337348 0 0 0 0.0114,0.007 c -0.17584,4.04108 -0.49774,8.30564 -1.00356,13.43071 -0.56739,5.74883 -0.76427,7.22953 -1.89911,14.2875 l -1.26607,7.87394 v 2.94814 c 2.6e-4,3.23528 -0.12365,4.20071 -0.868677,6.76754 -0.35706,1.23015 -0.39862,1.5843 -0.53744,4.57182 -0.0827,1.78118 -0.12183,4.68137 -0.0873,6.44508 h -5.3e-4 c 0.0346,1.76371 0.0279,3.20435 -0.015,3.20135 -0.0429,-0.003 -0.28682,-0.12996 -0.54208,-0.28215 l -0.46406,-0.27698 -0.10697,-1.97198 c -0.059,-1.08455 -0.10749,-4.80083 -0.10749,-8.25841 v -6.28644 l 0.79427,-4.52943 c 2.153507,-12.28024 3.619377,-24.53585 4.227647,-35.34875 0.0747,-1.32715 0.16782,-5.24163 0.20723,-8.69921 0.0808,-7.09137 -0.0536,-11.08145 -0.52504,-15.55771 l -0.30799,-2.92075 0.53175,-0.46302 0.15503,-0.13488 c 0.17678,-0.14172 0.32937,-0.2503 0.37672,-0.25476 z m -22.748998,0.0341 0.64544,0.45992 c 1.23616,0.88122 2.64816,2.1439 3.522267,3.14865 1.55976,1.79289 3.51822,6.12641 4.506697,9.972 0.24268,0.94412 0.44345,1.85936 0.44545,2.03398 0.004,0.30944 -3.834877,16.26718 -4.857577,20.19309 -0.67096,2.57562 -1.866807,6.20213 -2.735237,8.29561 -1.80406,4.349 -2.59935,6.38775 -3.14245,8.05326 -1.122637,3.44281 -1.225537,3.93919 -1.350297,6.51071 -0.29397,6.05888 -1.25082,9.18639 -3.20291,10.4681 -0.90689,0.59545 -1.383597,0.65549 -2.268077,0.28628 -1.01945,-0.42558 -1.50999,-0.80579 -1.50999,-1.17047 0,-0.46541 0.69582,-3.55811 1.32757,-5.90041 1.490237,-5.52527 1.677817,-7.40721 1.846397,-18.54202 0.17566,-11.60165 0.35322,-14.93969 1.08883,-20.44733 0.85984,-6.43775 1.50303,-9.27853 4.016287,-17.74466 z m 21.263298,1.24902 0.0667,0.41341 c 0.22233,1.37992 0.60488,6.06441 0.70901,8.68061 0.17191,4.31967 0.17273,8.8093 0.008,13.50512 a 18.040693,31.337348 0 0 0 0.0109,0.01 c -0.4062,11.60241 -1.84469,24.49808 -4.389917,39.4534 l -0.82269,4.83485 0.009,5.8968 c 0.005,3.24329 0.0544,6.78299 0.10956,7.86567 h 5.3e-4 c 0.0552,1.08267 0.0647,2.00867 0.0212,2.05827 -0.0991,0.11276 -2.76335,-1.78343 -4.203367,-2.99155 -1.23542,-1.03646 -3.3482,-3.11629 -4.221447,-4.1553 l -0.59428,-0.70642 0.11834,-0.81752 c 0.0649,-0.44956 0.26595,-1.90315 0.44649,-3.2303 0.321237,-2.36146 1.065067,-6.12613 1.350297,-6.83317 l 0.14367,-0.35553 0.5519,0.92707 c 0.36158,0.60782 0.55205,0.83406 0.55294,0.65629 0.004,-0.73969 -1.0723,-7.03742 -1.46038,-8.54624 -0.43703,-1.69916 -2.409677,-12.36998 -3.064927,-16.57884 -0.26231,-1.68482 -0.33631,-2.61123 -0.33331,-4.19458 0.004,-2.24202 0.14071,-3.30257 0.62218,-4.82606 0.44569,-1.41027 3.197697,-13.72686 3.300057,-14.76964 0.0459,-0.46818 0.12835,-0.93701 0.18345,-1.0418 0.0551,-0.10476 0.63285,-0.73722 1.28416,-1.40559 1.80579,-1.8531 3.044947,-3.80805 4.297417,-6.77943 0.32902,-0.78059 0.81208,-1.63011 1.26348,-2.22261 1.05296,-1.38209 2.495157,-3.14149 3.328997,-4.06125 z m 4.134637,13.54284 c 0.35227,0.15961 0.86621,0.3275 1.34462,0.41548 0.45746,0.0841 1.14944,0.10965 1.5384,0.0574 0.38898,-0.0523 0.7204,-0.0656 0.7364,-0.0294 0.0621,0.14025 -2.199,0.90114 -2.71974,0.91519 l -0.5488,0.015 0.39584,0.11059 0.39636,0.11059 -0.99219,0.3483 -0.12247,0.0424 c -0.008,-0.70078 -0.0176,-1.37571 -0.0284,-1.98541 z m 10.204024,0.83406 c 0.0119,0.005 0.0311,0.0388 0.0563,0.0977 0.0759,0.17649 0.20269,0.57122 0.32505,1.01803 0.16313,0.59576 0.31131,1.11857 0.32866,1.16272 0.0173,0.0442 -0.0133,0.19837 -0.0692,0.34313 -0.10326,0.2672 -1.11393,0.80135 -1.558557,0.82372 -0.11818,0.006 -0.221,-0.0262 -0.22893,-0.0718 -0.008,-0.0456 -0.0663,-0.2545 -0.12919,-0.46457 l -0.11472,-0.38241 0.52089,0.0289 c 0.28638,0.0157 0.650977,-0.0355 0.810287,-0.11369 0.22361,-0.10988 0.15894,-0.12716 -0.28628,-0.077 -0.855737,0.0965 -0.979557,0.0284 -1.314137,-0.72761 -0.28993,-0.65521 -0.28852,-0.67272 0.0356,-0.90123 0.39585,-0.27899 1.503897,-0.78095 1.624197,-0.73588 z m -4.989877,0.23771 v 5.3e-4 c 0.0678,-0.009 0.0953,0.11456 0.0439,0.37517 -0.0736,0.3739 0.28555,1.32103 0.57413,1.51412 0.13468,0.0901 0.33169,0.0242 0.87539,-0.29197 0.38603,-0.22441 0.80657,-0.4885 0.93483,-0.58704 0.21803,-0.16755 0.24918,-0.14292 0.47801,0.38654 0.13455,0.31146 0.27072,0.86604 0.30231,1.23196 0.0508,0.58837 0.0139,0.6982 -0.31885,0.94878 -0.24588,0.18525 -0.61651,0.32619 -1.0697,0.40721 -0.63028,0.11273 -0.73798,0.0873 -1.18391,-0.27853 -0.4184,-0.34314 -0.87371,-1.00654 -0.73329,-1.06867 0.0241,-0.0107 0.26625,-0.0248 0.53796,-0.0305 0.27171,-0.006 0.57738,-0.0471 0.67902,-0.092 0.33482,-0.14816 -0.0171,-0.22962 -0.61856,-0.14262 -0.65558,0.0948 -0.72257,0.0258 -0.88522,-0.92243 -0.0537,-0.31276 -0.0103,-0.76891 0.0977,-1.03146 0.11041,-0.26844 0.21847,-0.41007 0.28629,-0.4191 z m -1.777667,0.091 v 5.3e-4 c 0.15587,0.002 0.30262,0.0181 0.42633,0.0496 l 0.40153,0.10284 -0.016,0.80253 c -0.0143,0.69677 0.0478,0.94369 0.467667,1.87276 l 0.48421,1.07022 -0.46044,0.20412 c -0.768347,0.34 -1.460347,0.37312 -1.591627,0.0765 -0.0622,-0.14063 -0.25812,-0.49104 -0.43564,-0.77876 l -0.32297,-0.52349 0.4532,-0.11782 c 0.24915,-0.0651 0.46186,-0.18142 0.47232,-0.25735 0.0105,-0.0759 -0.13055,-0.0718 -0.31316,0.009 -0.18262,0.0808 -0.42273,0.11208 -0.5333,0.0692 -0.11064,-0.0427 -0.20779,-0.10891 -0.21601,-0.14728 -0.2796,-1.32015 -0.29799,-1.96056 -0.0615,-2.14508 0.23118,-0.18037 0.77778,-0.29463 1.24541,-0.28732 z m -2.31872,0.95963 c 0.24676,-0.003 0.36487,0.0349 0.41961,0.13022 v 5.3e-4 c 0.0102,0.0182 0.0182,0.0383 0.0248,0.0605 0.0359,0.12775 0.15419,0.56849 0.26252,0.97875 0.1083,0.4103 0.32687,1.04382 0.48679,1.40767 0.32046,0.73158 0.27578,0.90302 -0.2837,1.09089 -0.75576,0.25373 -1.19987,0.2105 -1.43196,-0.13953 -0.10341,-0.15604 -0.33229,-0.54067 -0.5426,-0.90589 -0.003,-0.41988 -0.004,-0.80123 -0.008,-1.25573 -0.004,-0.41765 -0.009,-0.75291 -0.0129,-1.13843 0.17851,-0.12088 0.42593,-0.18173 0.79323,-0.21291 0.11317,-0.01 0.20972,-0.015 0.29197,-0.016 z m -54.01221,4.43538 c 0.34298,0.0328 0.745,0.31659 1.09038,0.77928 0.13931,0.18662 0.22863,0.36354 0.19843,0.39274 -0.0302,0.0292 -0.44056,-0.21304 -0.91157,-0.53795 -0.7855,-0.54183 -0.8287,-0.59392 -0.52038,-0.63252 0.0463,-0.006 0.0941,-0.006 0.14314,-0.002 z m 1.70377,0.59325 c 0.0795,0.003 0.16648,0.009 0.25787,0.0181 0.61949,0.0625 0.6837,0.10168 0.93896,0.57515 0.15063,0.2794 0.31247,0.63659 0.35967,0.79375 0.0672,0.22388 0.0356,0.28409 -0.14521,0.28009 -0.2208,-0.005 -1.16014,-0.30473 -1.24024,-0.39533 -0.0953,-0.10777 -0.57774,-1.12398 -0.57774,-1.21698 0,-0.0428 0.16835,-0.063 0.40669,-0.0548 z m 1.76269,0.0145 c 0.48487,-10e-4 1.145347,0.0659 1.221107,0.16588 0.20804,0.27447 0.65413,1.46874 0.57723,1.54564 -0.0404,0.0404 -0.31029,0.0734 -0.59945,0.0734 -0.499327,0 -0.555427,-0.0404 -1.121377,-0.81132 -0.32774,-0.44643 -0.59634,-0.84685 -0.59634,-0.88935 0,-0.0578 0.2279,-0.0834 0.51883,-0.0842 z m 20.004978,47.37437 c 0.0309,-0.003 0.0465,0.0122 0.0465,0.0465 0,0.25702 -0.3662,3.679 -0.4532,4.23488 -0.0348,0.22233 -0.13471,0.42222 -0.22221,0.44442 -0.0875,0.0221 -0.93605,0.89957 -1.88567,1.94975 -0.949627,1.05016 -2.063977,2.22169 -2.476337,2.60346 -0.41237,0.38175 -0.99626,0.88947 -1.2976,1.12809 l -0.54828,0.43409 0.0801,-1.06919 c 0.044,-0.58787 0.1356,-2.26884 0.2036,-3.73569 0.13484,-2.90896 0.34722,-5.91732 0.42272,-5.99291 0.0262,-0.0262 0.14924,0.1079 0.27388,0.29817 0.65905,1.00605 1.64104,1.56734 2.742987,1.56734 0.88356,0 1.1074,-0.1269 2.42983,-1.37924 0.36053,-0.34139 0.591,-0.51982 0.68367,-0.52968 z m -14.142811,3.12022 0.341587,0.94981 c 1.16901,3.24818 2.30982,5.31979 3.73311,6.77788 0.37008,0.37915 0.86906,0.80849 1.10845,0.95447 1.293877,0.78893 2.910817,-0.18618 6.441474,-3.88504 1.76072,-1.84464 1.88758,-1.95167 1.83968,-1.55029 -0.40067,3.35538 -1.27174,8.61205 -2.701647,16.30598 -1.57215,8.4593 -1.95822,11.71603 -1.96422,16.57367 -0.005,3.89265 0.0511,4.39485 1.29036,11.43031 1.834537,10.41495 2.061027,11.73347 2.020037,11.77447 -0.0227,0.0227 -0.39977,-0.50233 -0.8382,-1.16737 -0.438427,-0.66502 -0.824527,-1.20923 -0.857827,-1.20923 -0.11982,0 0.12176,0.70487 0.982367,2.86546 0.48149,1.2088 0.96429,2.62781 1.07281,3.1533 0.49048,2.37504 0.0215,5.03611 -1.19011,6.75255 -0.944147,1.33752 -1.047007,1.41951 -2.057237,1.64073 -1.07297,0.235 -3.41955,0.35888 -3.983227,0.21032 -1.40637,-0.37063 -2.76724,-1.36369 -3.15588,-2.30323 -0.2779,-0.67185 -0.37824,-2.01268 -0.22479,-3.00187 0.0751,-0.4844 0.57092,-2.25031 1.10174,-3.9243 l 0.96532,-3.04375 0.11782,-2.85719 c 0.0649,-1.57163 0.18422,-3.40078 0.26562,-4.06435 0.0814,-0.66358 0.14239,-1.37795 0.13539,-1.5875 -0.0183,-0.54086 -1.29979,-8.35966 -1.91461,-11.68352 -2.289857,-12.37962 -2.800297,-17.31619 -2.910417,-28.13058 -0.0552,-5.42138 0.0205,-7.99684 0.30541,-10.34821 z m 25.098215,4.00234 c 0.15238,-0.0135 0.36685,0.27088 1.10898,1.29708 2.951937,4.08191 5.102977,6.07604 8.147304,7.55406 1.12342,0.54542 1.60805,0.71126 2.22208,0.76016 0.895677,0.0714 1.082617,-0.0524 1.353407,-0.89555 0.0856,-0.26662 0.16934,-0.46662 0.18604,-0.44442 0.0167,0.0222 -0.0415,0.64065 -0.12971,1.37408 -0.22714,1.889 -0.21475,3.36201 0.0755,8.76639 0.51828,9.65189 0.95196,14.59356 1.57665,17.96686 1.14153,6.16417 0.96926,5.52157 1.78025,6.64817 0.93114,1.29349 2.528757,2.87753 3.888137,3.85558 0.6195,0.44572 2.13958,1.29146 3.609597,2.00814 2.48368,1.21088 3.89647,2.10333 4.29689,2.71457 0.489467,0.74716 0.367137,1.27359 -0.52555,2.26188 -0.62005,0.68646 -1.26482,1.07963 -2.14715,1.30948 -0.99918,0.26032 -1.52618,0.23669 -3.338297,-0.14831 -2.37212,-0.50396 -3.84733,-1.18307 -5.307167,-2.44275 -1.31776,-1.1371 -1.53974,-1.24651 -3.2489,-1.603 -2.551697,-0.53222 -5.105937,-1.36526 -6.934464,-2.26136 l -0.82527,-0.40411 0.0336,-0.88935 c 0.11857,-3.13512 0.21923,-3.58444 0.67903,-3.03031 0.16288,0.1963 1.249467,0.72922 1.327567,0.65112 0.02,-0.02 -0.10914,-0.57901 -0.28732,-1.24178 -0.3877,-1.44194 -0.53534,-4.28017 -0.30955,-5.95829 0.16308,-1.21192 0.0564,-3.84605 -0.433047,-10.67687 -0.17268,-2.40983 -0.42855,-6.69608 -0.56844,-9.525 -0.13988,-2.82893 -0.33686,-5.77234 -0.4377,-6.54069 -0.28598,-2.17898 -0.73814,-4.44363 -0.83354,-4.1739 -0.046,0.13025 -0.15267,1.58002 -0.23667,3.22151 -0.17948,3.5079 -0.25732,4.24334 -0.41032,3.87263 -1.52358,-3.69137 -3.051307,-8.01126 -3.995097,-11.29647 -0.66317,-2.30836 -0.68244,-2.41657 -0.46561,-2.63343 0.0542,-0.0542 0.098,-0.0916 0.14883,-0.0961 z m 5.786207,49.43419 c 0.006,-0.0139 0.57539,0.20238 1.266587,0.48059 1.57281,0.63307 3.08448,1.0673 4.639,1.33222 2.034737,0.34676 3.162657,0.8256 4.533057,1.92443 1.966717,1.57696 5.498997,2.8217 8.023284,2.8267 1.39667,0.003 1.84314,-0.17992 2.93522,-1.20251 0.52377,-0.49045 1.080517,-1.00041 1.237647,-1.13326 l 0.28577,-0.24133 v 0.50488 c 0,0.98922 -1.439477,2.20092 -3.525877,2.96777 -0.87777,0.32262 -1.35942,0.41821 -2.31459,0.45941 -1.851797,0.0799 -2.557807,-0.22426 -5.230177,-2.25258 -2.806407,-2.13005 -4.272307,-2.81671 -6.335524,-2.96726 -0.58755,-0.0429 -1.41938,-0.10874 -1.84795,-0.14624 l -0.77877,-0.0677 0.29559,1.37046 c 0.16272,0.75375 0.27078,1.39579 0.23978,1.42679 -0.031,0.031 -0.5141,-0.0818 -1.07332,-0.25063 l -1.01699,-0.30696 -0.824237,-1.77095 c -0.45337,-0.9739 -0.82424,-1.87125 -0.82424,-1.9942 0,-0.12294 0.069,-0.38341 0.15296,-0.57877 0.0839,-0.19538 0.15678,-0.36696 0.16278,-0.38086 z M 30.392462,257.959 c -0.10476,0.003 0.0952,0.16399 0.44441,0.35864 0.887517,0.49472 1.206127,0.70601 1.206127,0.79891 0,0.0441 -0.29998,0.11912 -0.66662,0.16692 -1.253917,0.16358 -1.369187,0.2575 -0.412377,0.33589 1.700867,0.13937 2.168187,0.12095 3.840587,-0.15296 1.06507,-0.17444 1.68259,-0.33136 1.68259,-0.42736 0,-0.41756 -0.47087,-0.53728 -3.17448,-0.80977 -1.50148,-0.15133 -2.815487,-0.27327 -2.920237,-0.27027 z m 8.632544,3.68608 c 0.061,-0.004 0.11459,0.65162 0.12144,1.91978 0.01,1.80409 -0.34574,3.52359 -0.97668,4.7253 -0.58405,1.11236 -1.757887,2.33693 -2.698547,2.81583 -0.63344,0.32247 -0.84547,0.35978 -2.28513,0.39999 -1.27238,0.0355 -1.7638,-0.004 -2.476337,-0.19896 -2.22518,-0.60981 -3.33636,-1.43362 -4.10259,-3.04115 -0.40152,-0.84238 -0.44873,-1.05833 -0.48783,-2.22261 l -0.0434,-1.28934 0.47594,1.34877 c 0.78128,2.21454 1.75246,3.49528 3.18534,4.20129 0.55092,0.27186 0.73697,0.29036 2.686657,0.27284 2.65731,-0.0238 3.23402,-0.20346 4.382157,-1.36684 1.47777,-1.49735 1.95296,-2.87276 2.06654,-5.97998 0.0389,-1.06393 0.0986,-1.58138 0.15245,-1.58492 z" />
    </g>
  </g>
</svg>
